<?xml version="1.0" encoding="utf-8"?>
<!-- Generator: Adobe Illustrator 22.1.0, SVG Export Plug-In . SVG Version: 6.00 Build 0)  -->
<svg version="1.1" id="Layer_1" xmlns="http://www.w3.org/2000/svg" xmlns:xlink="http://www.w3.org/1999/xlink" x="0px" y="0px"
	 viewBox="0 0 200 50" style="enable-background:new 0 0 200 50;" xml:space="preserve">
<style type="text/css">
	.st0{fill:#FFFFFF;}
	.st1{fill:#1CE8F7;}
	.st2{opacity:0.2;}
	.st3{clip-path:url(#SVGID_2_);}
	.st4{filter:url(#Adobe_OpacityMaskFilter);}
	.st5{clip-path:url(#SVGID_4_);fill:url(#SVGID_6_);}
	.st6{clip-path:url(#SVGID_4_);mask:url(#SVGID_5_);fill:url(#SVGID_7_);}
	.st7{clip-path:url(#SVGID_9_);}
	.st8{filter:url(#Adobe_OpacityMaskFilter_1_);}
	.st9{clip-path:url(#SVGID_11_);fill:url(#SVGID_13_);}
	.st10{clip-path:url(#SVGID_11_);mask:url(#SVGID_12_);fill:url(#SVGID_14_);}
</style>
<g>
	<path class="st0" d="M103.1,31.7c-0.5,0.5-1,0.9-1.6,1.2c-1,0.5-2,0.8-3.1,0.8c-3.6,0-6.5-2.9-6.5-6.5c0-3.6,2.9-6.5,6.5-6.5
		c1.7,0,3.4,0.7,4.6,1.9c0.3,0.3,0.9,0.3,1.2,0c0.3-0.3,0.3-0.9,0-1.2c-1.6-1.6-3.6-2.4-5.8-2.4c-4.6,0-8.3,3.7-8.3,8.3
		c0,4.6,3.7,8.3,8.3,8.3c1.4,0,2.8-0.4,4-1c0.7-0.4,1.4-0.9,2-1.6c0.3-0.4,0.3-0.9,0-1.2C104,31.4,103.4,31.4,103.1,31.7"/>
	<path class="st0" d="M51.3,20.2c0-0.5,0.4-0.9,0.9-0.9h4.6c5,0,8.4,3.4,8.4,7.9v0c0,4.5-3.4,7.9-8.4,7.9h-4.6
		c-0.5,0-0.9-0.4-0.9-0.9V20.2z M56.8,33.5c4,0,6.6-2.7,6.6-6.2v0c0-3.5-2.6-6.3-6.6-6.3h-3.7v12.5H56.8z"/>
	<path class="st0" d="M103.1,31.7c-0.5,0.5-1,0.9-1.6,1.2c-1,0.5-2,0.8-3.1,0.8c-3.6,0-6.5-2.9-6.5-6.5c0-3.6,2.9-6.5,6.5-6.5
		c1.7,0,3.4,0.7,4.6,1.9c0.3,0.3,0.9,0.3,1.2,0c0.3-0.3,0.3-0.9,0-1.2c-1.6-1.6-3.6-2.4-5.8-2.4c-4.6,0-8.3,3.7-8.3,8.3
		c0,4.6,3.7,8.3,8.3,8.3c1.4,0,2.8-0.4,4-1c0.7-0.4,1.4-0.9,2-1.6c0.3-0.4,0.3-0.9,0-1.2C104,31.4,103.4,31.4,103.1,31.7"/>
	<path class="st0" d="M71.3,34.2v-14c0-0.5,0.4-0.9,0.9-0.9H82c0.5,0,0.8,0.4,0.8,0.8c0,0.5-0.4,0.8-0.8,0.8H73v5.4H81
		c0.5,0,0.8,0.4,0.8,0.8c0,0.5-0.4,0.8-0.8,0.8H73v5.5h9.1c0.5,0,0.8,0.4,0.8,0.8c0,0.5-0.4,0.8-0.8,0.8h-10
		C71.7,35.1,71.3,34.7,71.3,34.2"/>
	<path class="st0" d="M112.9,20.2c0-0.5,0.4-0.9,0.9-0.9h5.9c1.9,0,3.5,0.6,4.5,1.6c0.8,0.8,1.2,1.9,1.2,3.1v0
		c0,2.6-1.8,4.1-4.2,4.6l3.9,5.1c0.2,0.2,0.3,0.4,0.3,0.7c0,0.5-0.5,0.9-0.9,0.9c-0.4,0-0.6-0.2-0.8-0.5l-4.5-5.8h-4.6v5.4
		c0,0.5-0.4,0.9-0.9,0.9c-0.5,0-0.9-0.4-0.9-0.9V20.2z M119.6,27.4c2.4,0,4.1-1.2,4.1-3.3v0c0-1.9-1.5-3.1-4.1-3.1h-4.9v6.4H119.6z"
		/>
	<path class="st0" d="M136,28.9l-5.9-8.2c-0.1-0.2-0.2-0.4-0.2-0.6c0-0.5,0.4-0.9,0.9-0.9c0.4,0,0.6,0.2,0.9,0.5l5.2,7.5l5.3-7.5
		c0.2-0.3,0.5-0.5,0.8-0.5c0.5,0,0.9,0.4,0.9,0.9c0,0.2-0.1,0.5-0.2,0.7l-5.9,8.2v5.5c0,0.5-0.4,0.9-0.9,0.9c-0.5,0-0.9-0.4-0.9-0.9
		V28.9z"/>
	<path class="st0" d="M149.4,20.2c0-0.5,0.4-0.9,0.9-0.9h5.1c3.6,0,5.9,1.9,5.9,5v0c0,3.4-2.9,5.2-6.2,5.2h-3.9v4.8
		c0,0.5-0.4,0.9-0.9,0.9c-0.5,0-0.9-0.4-0.9-0.9V20.2z M155.1,27.9c2.6,0,4.3-1.4,4.3-3.5v0c0-2.3-1.7-3.4-4.3-3.4h-4v7H155.1z"/>
	<path class="st0" d="M171,20.9h-4.6c-0.5,0-0.8-0.4-0.8-0.8s0.4-0.8,0.8-0.8h11c0.5,0,0.8,0.4,0.8,0.8s-0.4,0.8-0.8,0.8h-4.6v13.4
		c0,0.5-0.4,0.9-0.9,0.9c-0.5,0-0.9-0.4-0.9-0.9V20.9z"/>
	<path class="st0" d="M181.9,27.2L181.9,27.2c0-4.4,3.3-8.2,8.1-8.2c4.8,0,8.1,3.8,8.1,8.2v0c0,4.4-3.3,8.2-8.1,8.2
		C185.2,35.4,181.9,31.6,181.9,27.2 M196.3,27.2L196.3,27.2c0-3.6-2.6-6.6-6.3-6.6c-3.6,0-6.2,2.9-6.2,6.5v0c0,3.6,2.6,6.5,6.3,6.5
		C193.7,33.8,196.3,30.9,196.3,27.2"/>
	<path class="st1" d="M11,32.4c4.4-4.5,5.5-11.7,1.1-16.1l-3.4-3.4h-7l9.2,9.3C13.8,25,13.8,29.6,11,32.4"/>
	<g class="st2">
		<g>
			<defs>
				<rect id="SVGID_1_" x="1.8" y="12.9" width="13.1" height="19.6"/>
			</defs>
			<clipPath id="SVGID_2_">
				<use xlink:href="#SVGID_1_"  style="overflow:visible;"/>
			</clipPath>
			<g class="st3">
				<defs>
					<path id="SVGID_3_" d="M11,32.4c4.4-4.5,5.5-11.7,1.1-16.1l-3.4-3.4h-7l9.2,9.3C13.8,25,13.8,29.6,11,32.4"/>
				</defs>
				<clipPath id="SVGID_4_">
					<use xlink:href="#SVGID_3_"  style="overflow:visible;"/>
				</clipPath>
				<defs>
					<filter id="Adobe_OpacityMaskFilter" filterUnits="userSpaceOnUse" x="-7" y="6.2" width="32.3" height="32.8">
						<feColorMatrix  type="matrix" values="1 0 0 0 0  0 1 0 0 0  0 0 1 0 0  0 0 0 1 0"/>
					</filter>
				</defs>
				<mask maskUnits="userSpaceOnUse" x="-7" y="6.2" width="32.3" height="32.8" id="SVGID_5_">
					<g class="st4">
						
							<linearGradient id="SVGID_6_" gradientUnits="userSpaceOnUse" x1="-1683.2598" y1="5287.4062" x2="-1682.9342" y2="5287.4062" gradientTransform="matrix(-30.7573 -19.1475 -19.1475 30.7573 49480.1562 -194832.5)">
							<stop  offset="0" style="stop-color:#FFFFFF"/>
							<stop  offset="6.285292e-02" style="stop-color:#DADADA"/>
							<stop  offset="0.1601" style="stop-color:#A7A7A7"/>
							<stop  offset="0.2621" style="stop-color:#7B7B7B"/>
							<stop  offset="0.3668" style="stop-color:#555555"/>
							<stop  offset="0.475" style="stop-color:#363636"/>
							<stop  offset="0.5878" style="stop-color:#1E1E1E"/>
							<stop  offset="0.7072" style="stop-color:#0D0D0D"/>
							<stop  offset="0.8376" style="stop-color:#030303"/>
							<stop  offset="1" style="stop-color:#000000"/>
						</linearGradient>
						<polygon class="st5" points="12.5,39 -7,26.9 5.9,6.2 25.4,18.3 						"/>
					</g>
				</mask>
				
					<linearGradient id="SVGID_7_" gradientUnits="userSpaceOnUse" x1="-1683.2598" y1="5287.4062" x2="-1682.9342" y2="5287.4062" gradientTransform="matrix(-30.7573 -19.1475 -19.1475 30.7573 49480.1562 -194832.5)">
					<stop  offset="0" style="stop-color:#000000"/>
					<stop  offset="1" style="stop-color:#000000"/>
				</linearGradient>
				<polygon class="st6" points="12.5,39 -7,26.9 5.9,6.2 25.4,18.3 				"/>
			</g>
		</g>
	</g>
	<path class="st1" d="M4.7,38.8l-2.9,2.9h7l6.3-6.4c4.4-4.5,4.4-11.7,0-16.1l-6.3-6.3l3.4,3.4c4.4,4.5,3.3,11.7-1.1,16.1L4.7,38.8z"
		/>
	<path class="st1" d="M29.3,22.1c-4.4,4.5-5.5,11.7-1.1,16.1l3.4,3.4h7l-9.2-9.3C26.6,29.6,26.5,24.9,29.3,22.1"/>
	<g class="st2">
		<g>
			<defs>
				<rect id="SVGID_8_" x="25.4" y="22.1" width="13.1" height="19.6"/>
			</defs>
			<clipPath id="SVGID_9_">
				<use xlink:href="#SVGID_8_"  style="overflow:visible;"/>
			</clipPath>
			<g class="st7">
				<defs>
					<path id="SVGID_10_" d="M29.3,22.1c-4.4,4.5-5.5,11.7-1.1,16.1l3.4,3.4h7l-9.2-9.3C26.6,29.6,26.5,24.9,29.3,22.1"/>
				</defs>
				<clipPath id="SVGID_11_">
					<use xlink:href="#SVGID_10_"  style="overflow:visible;"/>
				</clipPath>
				<defs>
					<filter id="Adobe_OpacityMaskFilter_1_" filterUnits="userSpaceOnUse" x="15" y="15.5" width="32.3" height="32.8">
						<feColorMatrix  type="matrix" values="1 0 0 0 0  0 1 0 0 0  0 0 1 0 0  0 0 0 1 0"/>
					</filter>
				</defs>
				<mask maskUnits="userSpaceOnUse" x="15" y="15.5" width="32.3" height="32.8" id="SVGID_12_">
					<g class="st8">
						
							<linearGradient id="SVGID_13_" gradientUnits="userSpaceOnUse" x1="-1475.7115" y1="5088.4438" x2="-1475.3859" y2="5088.4438" gradientTransform="matrix(30.7573 19.1475 19.1475 -30.7573 -52013.7891 184793.4375)">
							<stop  offset="0" style="stop-color:#FFFFFF"/>
							<stop  offset="6.285292e-02" style="stop-color:#DADADA"/>
							<stop  offset="0.1601" style="stop-color:#A7A7A7"/>
							<stop  offset="0.2621" style="stop-color:#7B7B7B"/>
							<stop  offset="0.3668" style="stop-color:#555555"/>
							<stop  offset="0.475" style="stop-color:#363636"/>
							<stop  offset="0.5878" style="stop-color:#1E1E1E"/>
							<stop  offset="0.7072" style="stop-color:#0D0D0D"/>
							<stop  offset="0.8376" style="stop-color:#030303"/>
							<stop  offset="1" style="stop-color:#000000"/>
						</linearGradient>
						<polygon class="st9" points="27.9,15.5 47.3,27.6 34.4,48.3 15,36.2 						"/>
					</g>
				</mask>
				
					<linearGradient id="SVGID_14_" gradientUnits="userSpaceOnUse" x1="-1475.7114" y1="5088.4438" x2="-1475.3859" y2="5088.4438" gradientTransform="matrix(30.7573 19.1475 19.1475 -30.7573 -52013.7891 184793.4375)">
					<stop  offset="0" style="stop-color:#000000"/>
					<stop  offset="1" style="stop-color:#000000"/>
				</linearGradient>
				<polygon class="st10" points="27.9,15.5 47.3,27.6 34.4,48.3 15,36.2 				"/>
			</g>
		</g>
	</g>
	<path class="st1" d="M35.7,15.8l2.9-2.9h-7l-6.3,6.4c-4.4,4.5-4.4,11.7,0,16.1l6.3,6.3l-3.4-3.4c-4.4-4.5-3.3-11.7,1.1-16.1
		L35.7,15.8z"/>
</g>
</svg>
